<?xml version="1.0" standalone="no"?>
<!DOCTYPE svg PUBLIC "-//W3C//DTD SVG 20010904//EN"
 "http://www.w3.org/TR/2001/REC-SVG-20010904/DTD/svg10.dtd">
<svg version="1.0" xmlns="http://www.w3.org/2000/svg"
 width="512.000000pt" height="512.000000pt" viewBox="0 0 512.000000 512.000000"
 preserveAspectRatio="xMidYMid meet">
<metadata>
Created by potrace 1.14, written by Peter Selinger 2001-2017
</metadata>
<g transform="translate(0.000000,512.000000) scale(0.100000,-0.100000)"
fill="#000000" stroke="none">
<path d="M0 2560 l0 -2560 2560 0 2560 0 0 2560 0 2560 -2560 0 -2560 0 0
-2560z m1828 1529 c64 -22 62 -1 62 -619 0 -309 4 -560 9 -558 4 2 276 260
604 574 333 319 613 579 634 590 31 16 66 19 199 22 l160 4 32 -27 c26 -22 32
-34 32 -68 1 -41 -3 -45 -164 -202 -90 -88 -398 -389 -685 -669 l-520 -509
149 -156 c82 -86 408 -415 724 -731 386 -385 579 -585 586 -606 13 -38 1 -75
-32 -98 -32 -22 -331 -23 -384 -1 -42 17 -82 55 -795 757 -295 291 -539 528
-543 528 -3 0 -6 -279 -6 -621 l0 -621 -29 -29 -29 -29 -157 0 c-156 0 -156 0
-180 26 l-25 27 0 1481 c0 1345 1 1484 16 1504 9 13 26 27 38 32 31 13 267 12
304 -1z"/>
</g>
</svg>
