<svg width="245" height="110" viewBox="0 0 245 110" fill="none" xmlns="http://www.w3.org/2000/svg">
<g clip-path="url(#clip0_10_1)">
<path d="M233.66 0H0V98.8562H233.66V0Z" fill="#FFF0F0"/>
<path d="M11.7998 65.8294C11.6649 65.6985 11.5573 65.5422 11.4832 65.3694C11.4092 65.1966 11.3702 65.0108 11.3685 64.8229L11.1168 26.3588C11.0994 26.1654 11.1224 25.9704 11.1842 25.7863C11.2461 25.6022 11.3456 25.433 11.4763 25.2894C11.5993 25.1553 11.7495 25.049 11.9169 24.9777C12.0843 24.9064 12.265 24.8717 12.4469 24.876H17.8391C18.0308 24.8679 18.222 24.9006 18.4001 24.9718C18.5783 25.0431 18.7393 25.1513 18.8726 25.2894C19.1385 25.5821 19.2859 25.9633 19.2859 26.3588L19.3938 39.8392L31.652 25.9454C31.895 25.5809 32.2322 25.2891 32.6278 25.1008C33.0234 24.9125 33.4625 24.8348 33.8987 24.876H40.0458C40.2121 24.8715 40.3777 24.9011 40.5322 24.963C40.6867 25.0248 40.827 25.1175 40.9444 25.2354C41.1874 25.4531 41.3543 25.7429 41.4208 26.0622C41.4622 26.2035 41.4683 26.3528 41.4385 26.4969C41.4087 26.6411 41.344 26.7758 41.25 26.889L25.6397 45.2044L42.8587 64.2387C43.0569 64.4268 43.1919 64.6717 43.2451 64.9397C43.2855 65.0951 43.2878 65.2579 43.2518 65.4144C43.2158 65.5708 43.1426 65.7163 43.0384 65.8384C42.9292 65.9685 42.791 66.0713 42.635 66.1384C42.4789 66.2055 42.3093 66.2351 42.1397 66.2248H36.2623C35.8301 66.2508 35.3985 66.1672 35.0073 65.9819C34.6161 65.7965 34.278 65.5153 34.0245 65.1644L19.5106 49.3384L19.5825 64.8229C19.6023 65.011 19.5804 65.2011 19.5183 65.3798C19.4561 65.5584 19.3553 65.7212 19.223 65.8564C19.0944 65.9836 18.9412 66.0835 18.7728 66.1499C18.6045 66.2163 18.4244 66.2479 18.2435 66.2428H12.8064C12.6192 66.2465 12.4333 66.2118 12.2602 66.1406C12.087 66.0695 11.9303 65.9636 11.7998 65.8294Z" fill="#92D5F6"/>
<path d="M49.0057 63.9961C46.773 61.952 45.268 59.2353 44.719 56.2584C44.4836 55.1266 44.3304 53.9792 44.2606 52.8254C44.1828 51.5264 44.1828 50.224 44.2606 48.925C44.4344 44.6772 45.5008 41.2802 47.46 38.7339C49.4191 36.1876 52.4327 34.9174 56.5008 34.9234C58.4135 34.8552 60.318 35.2048 62.0817 35.9479C63.5384 36.6376 64.8267 37.6376 65.8562 38.8776V36.9365C65.8423 36.7541 65.8689 36.5708 65.9342 36.3999C65.9995 36.229 66.1017 36.0746 66.2337 35.9479C66.5086 35.6912 66.8732 35.5525 67.2492 35.5615H71.9763C72.1678 35.5555 72.3586 35.5876 72.5376 35.6559C72.7166 35.7243 72.8802 35.8275 73.019 35.9596C73.1578 36.0917 73.269 36.2501 73.3461 36.4255C73.4232 36.6009 73.4647 36.7898 73.4681 36.9814L73.6569 64.8409C73.6748 65.032 73.6484 65.2246 73.5798 65.4038C73.5113 65.583 73.4023 65.7441 73.2614 65.8744C72.9893 66.1297 72.628 66.2684 72.2549 66.2608H67.5278C67.3369 66.2605 67.148 66.2222 66.9721 66.1481C66.7963 66.0741 66.6369 65.9657 66.5033 65.8294C66.3679 65.6994 66.2606 65.543 66.1879 65.3699C66.1153 65.1968 66.0788 65.0106 66.0809 64.8229V62.6391C65.1259 63.9118 63.921 64.9761 62.54 65.7665C60.9308 66.5494 59.1513 66.9171 57.3636 66.836C54.3191 66.9777 51.3336 65.9633 49.0057 63.9961ZM63.8072 58.2625C64.9866 56.7445 65.6198 54.8734 65.6046 52.9512C65.6046 51.3335 65.6046 49.8147 65.5507 48.3948C65.5304 47.7599 65.4522 47.1282 65.317 46.5075C65.0369 45.0723 64.3177 43.7596 63.259 42.751C62.0721 41.7527 60.5474 41.2477 58.9992 41.3401C55.015 41.3401 52.8252 43.9283 52.4297 49.1048C52.3423 50.3014 52.3423 51.5029 52.4297 52.6995C52.4904 53.571 52.6015 54.4382 52.7623 55.2968C53.0114 56.7337 53.6734 58.0671 54.6675 59.1342C55.2024 59.6138 55.8277 59.9817 56.5067 60.2163C57.1858 60.4509 57.9049 60.5474 58.6217 60.5002C59.6014 60.5636 60.5822 60.3939 61.4836 60.0049C62.385 59.6159 63.1813 59.0188 63.8072 58.2625Z" fill="#92D5F6"/>
<path d="M81.8799 65.8294C81.7445 65.6994 81.6372 65.543 81.5645 65.3699C81.4919 65.1967 81.4555 65.0106 81.4575 64.8229L81.3407 36.9634C81.327 36.7739 81.3528 36.5837 81.4163 36.4047C81.4798 36.2256 81.5797 36.0617 81.7098 35.9232C81.8398 35.7848 81.9971 35.6747 82.1718 35.6001C82.3465 35.5254 82.5347 35.4878 82.7247 35.4895H87.5776C87.7769 35.4826 87.9754 35.5184 88.1599 35.5943C88.3443 35.6702 88.5104 35.7846 88.6471 35.9299C88.918 36.2064 89.0725 36.5763 89.0784 36.9634V39.3899C90.4804 36.7896 93.1495 35.4895 97.0858 35.4895H100.042C100.234 35.4797 100.426 35.5116 100.605 35.5829C100.783 35.6543 100.944 35.7635 101.076 35.9029C101.335 36.1732 101.478 36.5349 101.471 36.9095V41.2232C101.5 41.4047 101.483 41.5904 101.424 41.7641C101.364 41.9379 101.263 42.0946 101.13 42.2207C100.992 42.3595 100.826 42.4679 100.643 42.5391C100.461 42.6103 100.265 42.6427 100.069 42.6341H95.4052C94.6064 42.5657 93.8022 42.6739 93.0499 42.9511C92.2975 43.2283 91.6154 43.6677 91.0519 44.238C90.4884 44.8084 90.0573 45.4958 89.7893 46.2515C89.5212 47.0071 89.4227 47.8125 89.5008 48.6105L89.6087 64.7869C89.6158 64.9729 89.5844 65.1583 89.5163 65.3316C89.4482 65.5048 89.3451 65.6621 89.2132 65.7935C89.0827 65.9277 88.9261 66.0336 88.7529 66.1047C88.5798 66.1758 88.3938 66.2106 88.2067 66.2069H82.9494C82.7548 66.2197 82.5597 66.1929 82.3758 66.128C82.192 66.0631 82.0233 65.9615 81.8799 65.8294Z" fill="#92D5F6"/>
<path d="M106.702 65.8292C106.567 65.6983 106.459 65.542 106.385 65.3692C106.311 65.1964 106.272 65.0106 106.27 64.8227L106.145 36.9632C106.127 36.7721 106.153 36.5795 106.222 36.4003C106.29 36.221 106.399 36.06 106.54 35.9297C106.811 35.6727 107.173 35.5337 107.547 35.5432H112.22C112.408 35.5337 112.596 35.5649 112.772 35.6347C112.947 35.7045 113.105 35.8112 113.235 35.9477C113.366 36.0853 113.469 36.2475 113.536 36.4248C113.604 36.6022 113.636 36.7913 113.631 36.9812V38.9852C114.524 37.7731 115.641 36.7422 116.92 35.9477C118.364 35.2015 119.978 34.8452 121.602 34.9142C123.659 34.8706 125.694 35.3499 127.516 36.3071C129.171 37.1856 130.533 38.5289 131.434 40.1715C132.294 38.5459 133.591 37.1926 135.179 36.2638C136.767 35.3351 138.582 34.8676 140.421 34.9142C143.03 34.8543 145.582 35.6777 147.664 37.2508C149.791 38.9604 151.225 41.3843 151.699 44.0718C151.974 45.3143 152.112 46.5829 152.113 47.8553L152.158 64.8137C152.176 65.0025 152.153 65.193 152.089 65.3717C152.026 65.5504 151.923 65.7128 151.789 65.8472C151.661 65.9753 151.508 66.0757 151.34 66.1422C151.171 66.2087 150.991 66.2398 150.81 66.2336H145.903C145.711 66.2396 145.52 66.2075 145.341 66.1391C145.162 66.0708 144.999 65.9676 144.86 65.8355C144.721 65.7034 144.61 65.545 144.533 65.3696C144.456 65.1942 144.414 65.0052 144.411 64.8137L144.357 48.3316C144.369 47.4247 144.273 46.5195 144.069 45.6356C143.41 42.7717 141.703 41.3398 138.947 41.3398C138.179 41.3266 137.416 41.4687 136.704 41.7575C135.992 42.0463 135.346 42.4758 134.804 43.0204C133.606 44.1647 133.031 45.9381 133.078 48.3406L133.132 64.8227C133.15 65.0106 133.128 65.2003 133.065 65.3787C133.003 65.557 132.904 65.7199 132.773 65.8562C132.644 65.9834 132.491 66.0833 132.323 66.1497C132.154 66.2161 131.974 66.2477 131.793 66.2426H126.824C126.636 66.2463 126.45 66.2116 126.277 66.1404C126.104 66.0693 125.947 65.9634 125.817 65.8292C125.683 65.6979 125.577 65.5412 125.505 65.3684C125.432 65.1956 125.395 65.0101 125.395 64.8227L125.278 48.3406C125.285 47.4339 125.189 46.5293 124.99 45.6446C124.782 44.3584 124.127 43.1871 123.139 42.3374C122.211 41.6491 121.076 41.2973 119.922 41.3398C119.155 41.335 118.396 41.4845 117.689 41.7794C116.982 42.0743 116.341 42.5086 115.806 43.0563C114.607 44.2007 114.029 45.9741 114.071 48.3766L114.188 64.8586C114.208 65.049 114.183 65.2414 114.116 65.4207C114.049 65.6 113.941 65.7613 113.801 65.8921C113.527 66.1488 113.162 66.2875 112.786 66.2785H107.762C107.564 66.2813 107.367 66.2428 107.185 66.1654C107.002 66.0881 106.838 65.9736 106.702 65.8292Z" fill="#92D5F6"/>
<path d="M164.461 63.9962C161.917 61.9786 160.194 59.1032 159.617 55.9079C159.343 54.7273 159.177 53.524 159.123 52.3132C159.123 52.0436 159.123 51.055 159.123 49.3565C159.284 44.869 160.65 41.3431 163.221 38.7788C165.791 36.2146 169.245 34.9354 173.583 34.9414C177.483 34.9414 180.646 35.936 183.073 37.9251C185.545 40.0244 187.223 42.9076 187.827 46.0942C188.131 47.5522 188.296 49.0356 188.321 50.5248V51.765C188.328 51.9509 188.297 52.1364 188.229 52.3096C188.161 52.4828 188.057 52.6401 187.926 52.7715C187.787 52.9094 187.621 53.0172 187.438 53.0883C187.256 53.1594 187.061 53.1923 186.865 53.1849H167.31V53.6612C167.346 54.3353 167.436 55.0055 167.579 55.6653C167.875 57.1977 168.623 58.6063 169.727 59.7094C170.261 60.2295 170.894 60.6368 171.589 60.907C172.284 61.1772 173.026 61.3048 173.771 61.2821C174.835 61.3035 175.889 61.0699 176.844 60.6009C177.799 60.1318 178.629 59.441 179.262 58.586C179.474 58.263 179.757 57.9926 180.089 57.7952C180.42 57.6755 180.771 57.6236 181.123 57.6424H186.317C186.483 57.6395 186.648 57.6698 186.803 57.7316C186.957 57.7933 187.097 57.8852 187.216 58.0019C187.341 58.1142 187.439 58.2533 187.503 58.409C187.567 58.5646 187.595 58.7327 187.584 58.9006C187.354 60.1667 186.724 61.3258 185.787 62.2078C184.445 63.625 182.819 64.7428 181.015 65.488C178.744 66.4571 176.293 66.932 173.825 66.881C170.467 67.0047 167.167 65.9879 164.461 63.9962ZM180.197 48.1612V48.0444C180.192 47.2674 180.105 46.4932 179.936 45.7347C179.652 44.2282 178.893 42.8521 177.77 41.8074C176.638 40.8225 175.173 40.3052 173.672 40.3605C172.778 40.3227 171.887 40.492 171.068 40.8553C170.25 41.2185 169.526 41.7658 168.954 42.4545C167.741 44.0556 167.145 46.0398 167.274 48.0444V48.1612H180.197Z" fill="#92D5F6"/>
<path d="M194.118 65.8292C193.982 65.6991 193.875 65.5427 193.802 65.3696C193.73 65.1965 193.693 65.0104 193.695 64.8227L193.56 36.9632C193.543 36.7721 193.569 36.5795 193.637 36.4003C193.706 36.221 193.815 36.06 193.956 35.9297C194.228 35.6744 194.589 35.5357 194.962 35.5432H199.869C200.062 35.5339 200.255 35.5659 200.435 35.6372C200.615 35.7085 200.777 35.8174 200.912 35.9566C201.158 36.2245 201.298 36.5726 201.307 36.9362V39.3537C202.332 38.0062 203.646 36.9066 205.154 36.1364C206.853 35.2955 208.731 34.8792 210.627 34.9231C213.474 34.8035 216.277 35.6595 218.571 37.3496C220.693 39.055 222.132 41.4662 222.624 44.1437C222.899 45.4865 223.041 46.8532 223.047 48.2238L223.127 64.8227C223.145 65.0137 223.119 65.2063 223.05 65.3856C222.982 65.5648 222.873 65.7258 222.732 65.8561C222.461 66.1131 222.099 66.2521 221.725 66.2426H216.495C216.298 66.2502 216.102 66.2174 215.918 66.1463C215.734 66.0753 215.566 65.9673 215.426 65.8292C215.292 65.6979 215.186 65.5412 215.113 65.3684C215.041 65.1956 215.003 65.0101 215.003 64.8227L214.877 48.5743C214.881 47.5441 214.794 46.5157 214.617 45.5008C214.412 44.2559 213.756 43.13 212.774 42.3374C211.608 41.5954 210.235 41.2459 208.856 41.3398C207.905 41.2875 206.953 41.4312 206.059 41.7621C205.166 42.0929 204.35 42.6038 203.662 43.263C203.007 43.9844 202.501 44.8283 202.174 45.7461C201.847 46.6638 201.705 47.6373 201.757 48.6102L201.882 64.8586C201.9 65.0497 201.874 65.2423 201.805 65.4215C201.737 65.6008 201.628 65.7618 201.487 65.8921C201.216 66.1491 200.854 66.288 200.48 66.2785H195.223C195.017 66.2871 194.812 66.2515 194.622 66.1739C194.431 66.0964 194.259 65.9789 194.118 65.8292Z" fill="#92D5F6"/>
<path d="M233.66 0L244.804 11.1438V110L233.66 98.8562V0Z" fill="#F9D1D9"/>
<path d="M0 98.8564H233.66L244.804 110H11.1438L0 98.8564Z" fill="#FADBE0"/>
</g>
<defs>
<clipPath id="clip0_10_1">
<rect width="244.804" height="110" fill="white"/>
</clipPath>
</defs>
</svg>
